<?xml version="1.0" encoding="UTF-8" standalone="no"?>
<!DOCTYPE svg PUBLIC "-//W3C//DTD SVG 1.1//EN" "http://www.w3.org/Graphics/SVG/1.1/DTD/svg11.dtd">
<svg width="100%" height="100%" viewBox="0 0 256 256" version="1.1" xmlns="http://www.w3.org/2000/svg" xmlns:xlink="http://www.w3.org/1999/xlink" xml:space="preserve" xmlns:serif="http://www.serif.com/" style="fill-rule:evenodd;clip-rule:evenodd;stroke-linecap:round;stroke-linejoin:round;stroke-miterlimit:1.5;">
    <g transform="matrix(1,0,0,1,8.68142,-3.20835)">
        <path d="M169.396,57.587C169.396,57.587 186.592,25.012 156.441,21.269C126.29,17.526 153.467,56.864 141.118,64.594C128.77,72.324 107.715,56.599 78.671,109.249C49.628,161.899 81.412,115.745 110.549,90.53C139.685,65.315 103.188,119.526 87.039,155.246C70.889,190.965 63.586,199.798 40.182,212.561C16.779,225.325 37.233,232.037 80.764,204.542C124.295,177.046 130.758,119.649 137.133,139.415C143.509,159.181 95.56,223.308 60.945,235.073C26.33,246.837 88.613,243.632 133.694,213.145C178.774,182.658 171.194,101.52 170.179,92.641C169.164,83.761 196.829,153.947 181.615,176.937C166.401,199.926 185.597,185.295 195.03,162.426C204.463,139.557 204.95,93.744 171.71,72.219C138.47,50.694 155.763,52.889 169.396,57.587Z" style="fill:none;stroke:black;stroke-width:1px;"/>
    </g>
</svg>
